<svg width="134" height="216" viewBox="0 0 134 216" fill="none" xmlns="http://www.w3.org/2000/svg">
<path d="M20.7257 212.137L4.58619 194.891C-1.52222 188.785 -1.52222 183.147 4.58619 178.016L76.1307 117.498C77.3602 116.523 78.8239 115.606 80.5413 114.747C82.2586 113.889 83.5272 113.089 84.3858 112.367C85.2445 111.626 85.6739 110.651 85.6739 109.441V106.866C85.6739 105.637 85.2445 104.661 84.3858 103.939C83.5272 103.198 82.1806 102.418 80.3461 101.559C78.5116 100.701 77.1065 99.7839 76.1307 98.8084L4.58619 37.9203C-1.52222 32.7894 -1.52222 27.1708 4.58619 21.0449L20.7257 4.16947C25.8583 -0.961439 31.4788 -0.961439 37.6067 4.16947L126.403 79.3578C131.048 83.5133 133.37 88.293 133.37 93.658V122.629C133.37 128.014 131.048 132.774 126.403 136.929L37.6067 212.118C31.4983 217.268 25.8583 217.268 20.7257 212.137Z" fill="#ED1C24"/>
</svg>
