<svg width="451" height="418" viewBox="0 0 451 418" fill="none" xmlns="http://www.w3.org/2000/svg">
<path d="M219.34 362.15C194 340.11 178.75 309.52 176.41 276.02C176.25 273.72 176.16 271.42 176.12 269.13H126.9C56.82 269.13 0 325.95 0 396.03C0 407.71 9.47 417.18 21.15 417.18H317.26C328.94 417.18 338.41 407.71 338.41 396.03C338.41 393.21 338.31 390.42 338.13 387.65C326.35 391.2 314.17 393.01 301.84 393.01C271.52 393 242.22 382.05 219.34 362.15Z" fill="#DF2A35"/>
<path d="M293.09 141.84C293.81 141.79 294.52 141.75 295.24 141.71C295.8 136.85 296.1 131.92 296.1 126.91C296.11 56.82 239.29 0 169.2 0C99.11 0 42.3 56.82 42.3 126.9C42.3 196.98 99.12 253.8 169.2 253.8C171.76 253.8 174.3 253.72 176.82 253.57C179.54 228.25 189.89 204.38 206.95 184.76C229 159.42 259.59 144.17 293.09 141.84Z" fill="#2C5AA6"/>
<path d="M300.7 221.39L260.31 291.35H341.1L300.7 221.39Z" fill="#F2F2F2"/>
<path d="M414.85 250.46L382.04 264.62C382.07 265.59 382.1 266.56 382.1 267.54C382.1 280.97 378.78 293.63 372.93 304.77L404.1 318.22C411.77 302.91 416.1 285.63 416.1 267.34C416.1 261.6 415.67 255.96 414.85 250.46Z" fill="#E32285"/>
<path d="M326.76 343.89C318.89 346.47 310.49 347.88 301.77 347.88C279.46 347.85 259.23 338.67 244.65 323.9L212.21 337.9C216.57 343.4 221.47 348.54 226.88 353.25C247.6 371.26 274.12 381.18 301.57 381.18C307.26 381.18 312.91 380.75 318.47 379.91C337.45 377.22 354.92 369.85 369.67 359C378.66 352.39 386.64 344.49 393.34 335.58C397.42 330.15 401.02 324.34 404.09 318.22L372.92 304.77C363.28 323.13 346.74 337.33 326.76 343.89Z" fill="#F08323"/>
<path d="M226.7 238.89C235.39 216.19 254.1 198.4 277.4 190.97C285.09 188.52 293.27 187.19 301.76 187.19C345.08 187.19 380.5 221.66 382.04 264.61L414.85 250.45C407.47 200.84 368.05 161.7 318.31 154.72C312.86 153.92 307.33 153.51 301.75 153.51C299.07 153.51 296.37 153.6 293.66 153.79C293.24 153.82 292.83 153.86 292.42 153.89C262.58 156.29 235.37 170.02 215.69 192.65C206.51 203.21 199.48 215.12 194.76 227.86L225.84 241.27C226.11 240.49 226.4 239.69 226.7 238.89Z" fill="#91C142"/>
<path d="M221.46 269.78C221.44 269.03 221.42 268.28 221.42 267.52C221.42 258.34 222.98 249.51 225.83 241.28L194.75 227.87C191.9 235.57 189.9 243.58 188.78 251.77C188 257.52 187.65 263.35 187.75 269.24C187.79 271.24 187.87 273.26 188.01 275.27C189.63 298.45 198.07 320.07 212.2 337.89L244.64 323.89C230.82 309.88 222.07 290.83 221.46 269.78Z" fill="#FAB719"/>
<path d="M446.34 389.21L401.02 343.89C394.3 352.78 386.41 360.74 377.6 367.56L422.56 412.53L422.8 412.76C426 415.74 430.08 417.22 434.15 417.22C438.61 417.22 443.07 415.44 446.34 411.93C452.27 405.55 452.27 395.58 446.34 389.21Z" fill="#33B7BA"/>
</svg>
